<svg xmlns="http://www.w3.org/2000/svg" width="667" height="731" viewBox="0 0 667 731" shape-rendering="geometricPrecision">
<title>Marlowe smoothed icon</title>
<g fill-rule="evenodd" stroke="none">
<path fill="#18181B" d="M 205.00 49.67 Q 203.67 67.00 195.67 67.83 Q 187.67 68.67 187.67 78.33 Q 187.67 88.00 178.00 88.33 Q 168.33 88.67 168.50 115.83 Q 168.67 143.00 158.67 144.83 Q 148.67 146.67 148.33 168.67 Q 148.00 190.67 98.83 191.33 Q 49.67 192.00 49.83 218.67 Q 50.00 245.33 57.67 245.67 Q 65.33 246.00 65.67 256.67 Q 66.00 267.33 74.50 267.67 Q 83.00 268.00 83.50 275.17 Q 84.00 282.33 90.33 283.00 Q 96.67 283.67 80.67 286.83 Q 64.67 290.00 64.83 306.17 Q 65.00 322.33 73.00 322.67 Q 81.00 323.00 81.67 329.33 Q 82.33 335.67 90.00 336.17 Q 97.67 336.67 97.33 341.67 Q 97.00 346.67 87.67 347.17 Q 78.33 347.67 78.50 358.67 Q 78.67 369.67 87.67 370.67 Q 96.67 371.67 96.83 383.00 Q 97.00 394.33 105.00 394.67 Q 113.00 395.00 113.50 404.17 Q 114.00 413.33 121.83 413.83 Q 129.67 414.33 130.50 421.00 Q 131.33 427.67 139.50 428.00 Q 147.67 428.33 148.50 437.50 Q 149.33 446.67 158.50 446.33 Q 167.67 446.00 168.50 453.33 Q 169.33 460.67 176.50 461.17 Q 183.67 461.67 183.50 469.17 Q 183.33 476.67 175.67 477.33 Q 168.00 478.00 167.83 486.00 Q 167.67 494.00 160.83 495.00 Q 154.00 496.00 153.83 502.50 Q 153.67 509.00 147.83 509.50 Q 142.00 510.00 141.83 516.00 Q 141.67 522.00 135.67 523.33 Q 129.67 524.67 129.83 556.67 Q 130.00 588.67 137.00 588.83 Q 144.00 589.00 145.00 595.50 Q 146.00 602.00 168.83 602.33 Q 191.67 602.67 191.67 613.00 Q 191.67 623.33 184.67 624.00 Q 177.67 624.67 177.17 631.33 Q 176.67 638.00 170.33 638.50 Q 164.00 639.00 163.83 645.50 Q 163.67 652.00 157.33 652.67 Q 151.00 653.33 150.83 666.00 Q 150.67 678.67 222.83 679.50 Q 295.00 680.33 295.67 660.67 Q 296.33 641.00 324.67 641.00 Q 353.00 641.00 354.00 660.50 Q 355.00 680.00 427.17 680.00 Q 499.33 680.00 499.00 666.67 Q 498.67 653.33 492.17 653.00 Q 485.67 652.67 485.33 645.83 Q 485.00 639.00 479.00 638.00 Q 473.00 637.00 472.67 631.50 Q 472.33 626.00 465.33 625.67 Q 458.33 625.33 458.17 614.00 Q 458.00 602.67 478.83 602.33 Q 499.67 602.00 499.83 593.33 Q 500.00 584.67 508.33 584.33 Q 516.67 584.00 518.17 578.00 Q 519.67 572.00 525.00 571.50 Q 530.33 571.00 530.33 543.67 Q 530.33 516.33 551.00 516.67 Q 571.67 517.00 572.83 512.17 Q 574.00 507.33 586.67 501.50 Q 599.33 495.67 600.00 489.33 Q 600.67 483.00 608.83 482.33 Q 617.00 481.67 617.00 440.33 Q 617.00 399.00 609.33 398.33 Q 601.67 397.67 600.67 390.50 Q 599.67 383.33 593.33 382.67 Q 587.00 382.00 586.83 375.17 Q 586.67 368.33 579.33 367.67 Q 572.00 367.00 572.17 357.00 Q 572.33 347.00 561.67 346.00 Q 551.00 345.00 551.33 340.50 Q 551.67 336.00 558.17 335.67 Q 564.67 335.33 565.17 329.17 Q 565.67 323.00 574.83 322.50 Q 584.00 322.00 583.83 305.67 Q 583.67 289.33 567.33 286.50 Q 551.00 283.67 556.83 283.00 Q 562.67 282.33 563.17 275.17 Q 563.67 268.00 572.67 267.67 Q 581.67 267.33 582.17 256.67 Q 582.67 246.00 590.17 245.67 Q 597.67 245.33 597.83 218.67 Q 598.00 192.00 548.83 191.33 Q 499.67 190.67 499.33 168.33 Q 499.00 146.00 489.50 144.50 Q 480.00 143.00 480.17 115.83 Q 480.33 88.67 470.83 88.17 Q 461.33 87.67 461.33 77.67 Q 461.33 67.67 453.00 66.67 Q 444.67 65.67 443.67 57.67 Q 442.67 49.67 398.83 49.67 Q 355.00 49.67 353.00 57.67 Q 351.00 65.67 319.83 65.67 Q 288.67 65.67 287.33 57.67 Q 286.00 49.67 245.50 49.67 Z"/>
<path fill="#18181B" d="M 204.00 50.33 Q 203.67 67.33 195.83 67.67 Q 188.00 68.00 187.83 78.17 Q 187.67 88.33 177.83 88.83 Q 168.00 89.33 168.50 116.00 Q 169.00 142.67 159.00 144.33 Q 149.00 146.00 148.67 168.33 Q 148.33 190.67 99.17 191.00 Q 50.00 191.33 50.17 218.50 Q 50.33 245.67 58.17 245.83 Q 66.00 246.00 66.17 256.83 Q 66.33 267.67 74.83 267.83 Q 83.33 268.00 83.83 275.33 Q 84.33 282.67 90.67 283.33 Q 97.00 284.00 81.00 286.67 Q 65.00 289.33 65.17 306.00 Q 65.33 322.67 81.67 329.83 Q 98.00 337.00 97.67 341.83 Q 97.33 346.67 87.83 347.17 Q 78.33 347.67 78.83 359.17 Q 79.33 370.67 88.00 371.00 Q 96.67 371.33 97.00 383.00 Q 97.33 394.67 105.33 394.83 Q 113.33 395.00 113.83 404.33 Q 114.33 413.67 130.83 420.83 Q 147.33 428.00 148.33 437.33 Q 149.33 446.67 159.00 446.50 Q 168.67 446.33 169.00 453.50 Q 169.33 460.67 176.67 461.33 Q 184.00 462.00 183.83 469.17 Q 183.67 476.33 175.83 477.17 Q 168.00 478.00 167.83 486.17 Q 167.67 494.33 148.83 509.17 Q 130.00 524.00 130.00 556.33 Q 130.00 588.67 137.17 588.83 Q 144.33 589.00 144.83 595.33 Q 145.33 601.67 168.67 602.33 Q 192.00 603.00 191.83 613.50 Q 191.67 624.00 184.50 624.50 Q 177.33 625.00 177.33 631.33 Q 177.33 637.67 164.17 645.50 Q 151.00 653.33 151.17 666.50 Q 151.33 679.67 222.83 680.17 Q 294.33 680.67 295.00 660.83 Q 295.67 641.00 324.17 640.83 Q 352.67 640.67 353.50 660.17 Q 354.33 679.67 426.33 680.17 Q 498.33 680.67 498.33 666.83 Q 498.33 653.00 491.83 652.83 Q 485.33 652.67 478.83 639.33 Q 472.33 626.00 465.17 625.67 Q 458.00 625.33 458.00 613.83 Q 458.00 602.33 479.33 601.83 Q 500.67 601.33 500.33 592.83 Q 500.00 584.33 515.17 577.67 Q 530.33 571.00 530.17 543.67 Q 530.00 516.33 551.33 516.33 Q 572.67 516.33 586.50 499.67 Q 600.33 483.00 608.50 482.67 Q 616.67 482.33 616.50 440.17 Q 616.33 398.00 608.83 397.83 Q 601.33 397.67 593.83 382.83 Q 586.33 368.00 579.17 367.67 Q 572.00 367.33 572.17 357.17 Q 572.33 347.00 561.50 345.83 Q 550.67 344.67 558.00 333.83 Q 565.33 323.00 574.50 322.83 Q 583.67 322.67 583.50 305.83 Q 583.33 289.00 567.00 286.50 Q 550.67 284.00 556.67 283.17 Q 562.67 282.33 563.00 275.17 Q 563.33 268.00 572.50 267.67 Q 581.67 267.33 582.00 256.67 Q 582.33 246.00 590.00 245.67 Q 597.67 245.33 597.50 218.17 Q 597.33 191.00 548.33 190.83 Q 499.33 190.67 498.83 167.83 Q 498.33 145.00 489.00 143.83 Q 479.67 142.67 480.17 116.00 Q 480.67 89.33 470.83 88.33 Q 461.00 87.33 461.33 77.83 Q 461.67 68.33 453.00 67.00 Q 444.33 65.67 443.83 57.83 Q 443.33 50.00 398.67 50.17 Q 354.00 50.33 352.33 58.17 Q 350.67 66.00 319.50 65.83 Q 288.33 65.67 287.50 57.83 Q 286.67 50.00 245.33 50.17 Z"/>
<path fill="#333333" d="M 428.00 652.33 Q 428.33 666.67 450.00 666.67 Q 471.67 666.67 472.17 666.00 Q 472.67 665.33 472.17 664.50 Q 471.67 663.67 471.50 657.83 Q 471.33 652.00 464.33 651.83 Q 457.33 651.67 457.00 651.17 Q 456.67 650.67 456.67 649.33 Q 456.67 648.00 457.17 647.33 Q 457.67 646.67 457.67 644.00 Q 457.67 641.33 457.17 640.67 Q 456.67 640.00 448.83 640.17 Q 441.00 640.33 441.00 645.50 Q 441.00 650.67 440.67 651.17 Q 440.33 651.67 434.17 652.00 Z"/>
<path fill="#333333" d="M 177.00 652.33 Q 177.33 666.67 199.00 666.50 Q 220.67 666.33 220.50 658.67 Q 220.33 651.00 219.50 651.50 Q 218.67 652.00 213.50 651.83 Q 208.33 651.67 208.00 651.17 Q 207.67 650.67 207.50 645.33 Q 207.33 640.00 201.67 640.17 Q 196.00 640.33 196.00 645.50 Q 196.00 650.67 195.33 651.33 Q 194.67 652.00 185.83 652.17 Z"/>
<path fill="#333333" d="M 473.00 535.33 Q 473.33 566.67 475.00 566.67 Q 476.67 566.67 477.33 567.17 Q 478.00 567.67 490.33 567.50 Q 502.67 567.33 502.67 562.67 Q 502.67 558.00 503.00 557.50 Q 503.33 557.00 510.50 556.67 Q 517.67 556.33 517.50 545.67 Q 517.33 535.00 495.17 535.17 Z"/>
<path fill="#333333" d="M 478.33 506.00 Q 456.00 506.00 455.50 506.67 Q 455.00 507.33 455.50 508.17 Q 456.00 509.00 456.00 512.33 Q 456.00 515.67 455.67 516.17 Q 455.33 516.67 448.17 517.00 Q 441.00 517.33 441.17 532.50 Q 441.33 547.67 449.50 547.67 Q 457.67 547.67 458.50 548.17 Q 459.33 548.67 459.50 536.83 Q 459.67 525.00 460.33 524.33 Q 461.00 523.67 469.83 523.50 Q 478.67 523.33 478.50 514.67 Z"/>
<path fill="#333333" d="M 86.00 296.33 Q 86.33 307.67 94.50 308.00 Q 102.67 308.33 103.00 315.50 Q 103.33 322.67 112.67 323.33 Q 122.00 324.00 121.67 335.33 Q 121.33 346.67 110.17 347.50 Q 99.00 348.33 99.17 358.50 Q 99.33 368.67 109.83 368.83 Q 120.33 369.00 120.83 376.33 Q 121.33 383.67 134.33 383.83 Q 147.33 384.00 147.83 394.83 Q 148.33 405.67 156.50 406.00 Q 164.67 406.33 165.00 416.00 Q 165.33 425.67 176.33 425.83 Q 187.33 426.00 187.83 435.83 Q 188.33 445.67 204.00 445.67 Q 219.67 445.67 220.50 452.17 Q 221.33 458.67 237.67 459.33 Q 254.00 460.00 253.83 466.17 Q 253.67 472.33 242.33 472.83 Q 231.00 473.33 230.33 479.67 Q 229.67 486.00 224.17 485.83 Q 218.67 485.67 218.00 478.83 Q 217.33 472.00 202.67 476.67 Q 188.00 481.33 187.67 489.00 Q 187.33 496.67 178.17 497.00 Q 169.00 497.33 168.83 505.33 Q 168.67 513.33 161.83 513.83 Q 155.00 514.33 155.00 524.00 Q 155.00 533.67 150.50 534.50 Q 146.00 535.33 146.17 556.00 Q 146.33 576.67 151.83 576.83 Q 157.33 577.00 157.83 582.83 Q 158.33 588.67 173.50 588.50 Q 188.67 588.33 188.33 578.33 Q 188.00 568.33 195.83 567.83 Q 203.67 567.33 203.50 556.17 Q 203.33 545.00 195.50 544.50 Q 187.67 544.00 187.67 529.00 Q 187.67 514.00 196.17 513.17 Q 204.67 512.33 204.67 503.67 Q 204.67 495.00 211.67 494.83 Q 218.67 494.67 219.33 536.67 Q 220.00 578.67 213.50 579.50 Q 207.00 580.33 207.17 600.00 Q 207.33 619.67 213.50 620.00 Q 219.67 620.33 220.00 630.50 Q 220.33 640.67 227.17 640.83 Q 234.00 641.00 234.17 646.83 Q 234.33 652.67 251.00 652.50 Q 267.67 652.33 270.83 636.00 Q 274.00 619.67 326.83 619.67 Q 379.67 619.67 381.00 636.17 Q 382.33 652.67 398.50 652.50 Q 414.67 652.33 415.00 646.67 Q 415.33 641.00 422.00 640.67 Q 428.67 640.33 435.00 620.67 Q 441.33 601.00 436.50 600.33 Q 431.67 599.67 428.00 578.33 Q 424.33 557.00 419.33 556.50 Q 414.33 556.00 414.50 540.00 Q 414.67 524.00 419.67 523.67 Q 424.67 523.33 425.33 517.50 Q 426.00 511.67 433.83 511.50 Q 441.67 511.33 442.00 503.67 Q 442.33 496.00 453.50 495.67 Q 464.67 495.33 464.50 488.17 Q 464.33 481.00 446.33 476.50 Q 428.33 472.00 428.00 478.67 Q 427.67 485.33 421.83 485.67 Q 416.00 486.00 415.17 479.50 Q 414.33 473.00 402.67 472.67 Q 391.00 472.33 390.83 466.17 Q 390.67 460.00 407.67 459.17 Q 424.67 458.33 425.33 452.00 Q 426.00 445.67 438.83 445.50 Q 451.67 445.33 451.83 433.83 Q 452.00 422.33 457.83 421.83 Q 463.67 421.33 463.83 413.83 Q 464.00 406.33 470.33 405.83 Q 476.67 405.33 477.00 400.17 Q 477.33 395.00 484.50 395.33 Q 491.67 395.67 498.67 382.33 Q 505.67 369.00 527.17 364.17 Q 548.67 359.33 548.50 353.67 Q 548.33 348.00 538.67 347.67 Q 529.00 347.33 528.83 335.33 Q 528.67 323.33 535.67 323.00 Q 542.67 322.67 543.83 315.17 Q 545.00 307.67 553.33 307.50 Q 561.67 307.33 561.50 301.67 Q 561.33 296.00 323.67 296.17 Z"/>
<path fill="#FFFFFF" d="M 551.00 382.33 Q 551.33 394.67 556.50 394.50 Q 561.67 394.33 557.33 394.17 Q 553.00 394.00 552.67 393.83 Q 552.33 393.67 552.00 393.17 Q 551.67 392.67 551.67 388.83 Q 551.67 385.00 551.83 384.67 Q 552.00 384.33 552.50 384.00 Q 553.00 383.67 555.17 383.67 Q 557.33 383.67 558.83 384.00 Q 560.33 384.33 559.17 384.67 Q 558.00 385.00 558.17 385.83 Q 558.33 386.67 558.83 386.33 Q 559.33 386.00 560.00 386.17 Q 560.67 386.33 560.83 386.67 Q 561.00 387.00 561.17 389.83 Q 561.33 392.67 561.33 387.33 Q 561.33 382.00 556.17 382.17 Z"/>
<path fill="#FFFFFF" d="M 70.00 205.33 Q 70.33 227.67 78.83 227.83 Q 87.33 228.00 87.83 235.83 Q 88.33 243.67 102.50 243.67 Q 116.67 243.67 117.50 251.17 Q 118.33 258.67 129.33 258.83 Q 140.33 259.00 140.83 264.83 Q 141.33 270.67 157.50 270.67 Q 173.67 270.67 174.50 275.67 Q 175.33 280.67 323.00 280.50 Q 470.67 280.33 471.33 275.50 Q 472.00 270.67 489.83 270.50 Q 507.67 270.33 508.33 264.50 Q 509.00 258.67 520.33 259.00 Q 531.67 259.33 532.00 251.67 Q 532.33 244.00 546.50 243.67 Q 560.67 243.33 561.00 235.67 Q 561.33 228.00 569.50 227.67 Q 577.67 227.33 577.50 216.17 Q 577.33 205.00 566.17 205.17 Q 555.00 205.33 554.83 212.33 Q 554.67 219.33 543.83 219.83 Q 533.00 220.33 532.83 226.67 Q 532.67 233.00 512.83 233.17 Q 493.00 233.33 492.33 239.67 Q 491.67 246.00 467.33 246.17 Q 443.00 246.33 442.83 251.17 Q 442.67 256.00 323.83 256.00 Q 205.00 256.00 204.17 250.00 Q 203.33 244.00 179.17 244.00 Q 155.00 244.00 154.17 238.50 Q 153.33 233.00 135.67 233.00 Q 118.00 233.00 117.17 226.50 Q 116.33 220.00 105.83 219.83 Q 95.33 219.67 94.83 212.33 Q 94.33 205.00 82.17 205.17 Z"/>
<path fill="#FFFFFF" d="M 407.67 194.67 Q 407.67 209.00 408.17 209.50 Q 408.67 210.00 418.83 210.00 Q 429.00 210.00 429.50 209.67 Q 430.00 209.33 430.50 209.50 Q 431.00 209.67 432.17 209.50 Q 433.33 209.33 433.33 208.83 Q 433.33 208.33 434.00 207.83 Q 434.67 207.33 433.83 206.17 Q 433.00 205.00 433.33 204.67 Q 433.67 204.33 433.50 203.17 Q 433.33 202.00 433.00 202.33 Q 432.67 202.67 432.50 203.50 Q 432.33 204.33 432.00 202.83 Q 431.67 201.33 431.83 201.00 Q 432.00 200.67 432.67 200.50 Q 433.33 200.33 432.33 198.67 Q 431.33 197.00 431.00 199.00 Q 430.67 201.00 429.33 201.00 Q 428.00 201.00 427.83 200.50 Q 427.67 200.00 428.17 199.33 Q 428.67 198.67 428.50 197.33 Q 428.33 196.00 427.33 196.83 Q 426.33 197.67 425.83 197.33 Q 425.33 197.00 426.00 196.17 Q 426.67 195.33 425.33 195.33 Q 424.00 195.33 423.17 194.83 Q 422.33 194.33 422.33 195.33 Q 422.33 196.33 421.83 196.33 Q 421.33 196.33 421.67 197.00 Q 422.00 197.67 422.17 199.17 Q 422.33 200.67 421.83 201.17 Q 421.33 201.67 420.67 201.50 Q 420.00 201.33 420.00 200.83 Q 420.00 200.33 420.33 199.83 Q 420.67 199.33 419.83 197.83 Q 419.00 196.33 419.83 195.33 Q 420.67 194.33 419.33 194.17 Q 418.00 194.00 417.50 194.33 Q 417.00 194.67 416.17 194.67 Q 415.33 194.67 414.17 193.67 Q 413.00 192.67 411.33 192.67 Q 409.67 192.67 408.67 193.67 Z"/>
<path fill="#FFFFFF" d="M 460.00 192.33 Q 460.33 211.67 469.00 211.50 Q 477.67 211.33 477.67 202.17 Q 477.67 193.00 477.17 192.50 Q 476.67 192.00 468.33 192.17 Z"/>
<path fill="#FFFFFF" d="M 170.00 147.33 Q 170.33 177.67 179.83 177.83 Q 189.33 178.00 189.83 184.33 Q 190.33 190.67 313.00 191.50 Q 435.67 192.33 435.17 201.67 Q 434.67 211.00 420.83 210.67 Q 407.00 210.33 406.00 201.83 Q 405.00 193.33 405.17 202.50 Q 405.33 211.67 421.00 211.50 Q 436.67 211.33 437.00 201.17 Q 437.33 191.00 448.50 190.67 Q 459.67 190.33 460.00 184.17 Q 460.33 178.00 469.50 177.67 Q 478.67 177.33 478.50 162.17 Q 478.33 147.00 469.00 146.33 Q 459.67 145.67 459.50 117.83 Q 459.33 90.00 443.83 89.83 Q 428.33 89.67 428.33 78.83 Q 428.33 68.00 403.67 68.17 Q 379.00 68.33 378.83 78.83 Q 378.67 89.33 362.33 89.83 Q 346.00 90.33 345.33 99.67 Q 344.67 109.00 323.50 108.83 Q 302.33 108.67 301.83 99.33 Q 301.33 90.00 285.67 89.67 Q 270.00 89.33 269.67 78.67 Q 269.33 68.00 245.17 68.17 Q 221.00 68.33 220.67 79.00 Q 220.33 89.67 205.17 90.00 Q 190.00 90.33 189.83 118.33 Q 189.67 146.33 179.83 146.83 Z"/>
<path fill="#FCD133" d="M 460.00 572.33 Q 460.33 590.67 461.17 590.17 Q 462.00 589.67 468.33 589.67 Q 474.67 589.67 475.33 590.17 Q 476.00 590.67 477.83 590.50 Q 479.67 590.33 479.50 581.17 Q 479.33 572.00 469.67 572.17 Z"/>
<path fill="#FCD133" d="M 516.33 506.00 Q 498.00 506.33 498.00 514.50 Q 498.00 522.67 497.33 523.33 Q 496.67 524.00 491.33 524.17 Q 486.00 524.33 486.17 529.50 Q 486.33 534.67 497.00 534.50 Q 507.67 534.33 507.17 533.50 Q 506.67 532.67 506.67 528.33 Q 506.67 524.00 506.83 523.67 Q 507.00 523.33 507.50 523.00 Q 508.00 522.67 511.33 522.67 Q 514.67 522.67 515.50 523.17 Q 516.33 523.67 516.33 514.83 Z"/>
<path fill="#FCD133" d="M 503.33 409.00 Q 501.67 410.33 501.00 410.17 Q 500.33 410.00 500.00 410.17 Q 499.67 410.33 499.00 411.33 Q 498.33 412.33 499.17 412.67 Q 500.00 413.00 500.17 413.67 Q 500.33 414.33 499.67 414.83 Q 499.00 415.33 499.67 415.67 Q 500.33 416.00 500.67 416.50 Q 501.00 417.00 501.00 417.33 Q 501.00 417.67 501.83 418.33 Q 502.67 419.00 503.33 419.00 Q 504.00 419.00 504.33 418.83 Q 504.67 418.67 504.83 418.33 Q 505.00 418.00 505.00 414.33 Q 505.00 410.67 504.83 410.33 Q 504.67 410.00 504.00 409.50 Z"/>
<path fill="#FCD133" d="M 513.00 387.00 Q 512.67 388.00 513.17 388.50 Q 513.67 389.00 513.67 389.67 Q 513.67 390.33 513.17 391.00 Q 512.67 391.67 512.67 392.33 Q 512.67 393.00 513.17 393.67 Q 513.67 394.33 514.00 394.50 Q 514.33 394.67 514.83 394.50 Q 515.33 394.33 515.83 395.00 Q 516.33 395.67 516.67 395.17 Q 517.00 394.67 516.83 393.33 Q 516.67 392.00 517.17 391.33 Q 517.67 390.67 517.50 389.33 Q 517.33 388.00 516.83 388.33 Q 516.33 388.67 515.33 388.50 Q 514.33 388.33 515.00 387.83 Q 515.67 387.33 514.33 387.17 Z"/>
<path fill="#FCD133" d="M 530.00 388.33 Q 531.33 389.00 531.33 389.67 Q 531.33 390.33 532.33 390.00 Q 533.33 389.67 533.67 389.33 Q 534.00 389.00 534.50 389.17 Q 535.00 389.33 535.17 389.67 Q 535.33 390.00 535.17 391.33 Q 535.00 392.67 535.33 392.83 Q 535.67 393.00 540.83 393.00 Q 546.00 393.00 546.33 392.67 Q 546.67 392.33 545.83 392.17 Q 545.00 392.00 544.17 391.50 Q 543.33 391.00 542.83 391.33 Q 542.33 391.67 541.67 391.50 Q 541.00 391.33 541.00 390.83 Q 541.00 390.33 541.83 389.33 Q 542.67 388.33 542.33 387.83 Q 542.00 387.33 542.17 386.67 Q 542.33 386.00 543.17 386.00 Q 544.00 386.00 543.83 387.33 Q 543.67 388.67 544.00 389.17 Q 544.33 389.67 544.83 389.00 Q 545.33 388.33 545.83 389.50 Q 546.33 390.67 546.67 390.33 Q 547.00 390.00 547.00 389.33 Q 547.00 388.67 546.33 387.83 Q 545.67 387.00 545.83 386.67 Q 546.00 386.33 546.83 386.33 Q 547.67 386.33 547.83 386.67 Q 548.00 387.00 547.83 388.83 Q 547.67 390.67 548.00 391.67 Q 548.33 392.67 548.50 388.83 Q 548.67 385.00 548.33 384.83 Q 548.00 384.67 540.83 384.67 Q 533.67 384.67 533.33 385.00 Q 533.00 385.33 533.33 385.67 Q 533.67 386.00 534.50 386.17 Q 535.33 386.33 534.50 386.50 Q 533.67 386.67 533.33 387.00 Q 533.00 387.33 533.00 388.00 Q 533.00 388.67 532.50 388.67 Q 532.00 388.67 531.67 388.33 Q 531.33 388.00 530.67 388.17 Z"/>
<path fill="#FCD133" d="M 511.33 382.00 Q 510.67 395.33 504.33 395.83 Q 498.00 396.33 497.83 401.83 Q 497.67 407.33 492.33 407.83 Q 487.00 408.33 487.00 414.17 Q 487.00 420.00 482.00 420.17 Q 477.00 420.33 477.17 442.50 Q 477.33 464.67 482.33 464.83 Q 487.33 465.00 487.83 472.83 Q 488.33 480.67 493.83 480.83 Q 499.33 481.00 499.83 487.33 Q 500.33 493.67 508.33 493.83 Q 516.33 494.00 516.83 498.33 Q 517.33 502.67 542.00 502.50 Q 566.67 502.33 567.00 498.17 Q 567.33 494.00 574.00 493.67 Q 580.67 493.33 581.00 487.17 Q 581.33 481.00 588.50 480.67 Q 595.67 480.33 596.00 472.67 Q 596.33 465.00 602.00 464.67 Q 607.67 464.33 607.50 442.67 Q 607.33 421.00 604.50 420.33 Q 601.67 419.67 601.50 413.83 Q 601.33 408.00 595.67 407.67 Q 590.00 407.33 589.67 401.67 Q 589.33 396.00 582.17 395.67 Q 575.00 395.33 574.67 388.67 Q 574.33 382.00 568.17 382.17 Q 562.00 382.33 561.67 387.33 Q 561.33 392.33 561.00 388.33 Q 560.67 384.33 556.33 384.33 Q 552.00 384.33 552.00 388.83 Q 552.00 393.33 559.33 394.33 Q 566.67 395.33 567.00 401.50 Q 567.33 407.67 574.50 408.00 Q 581.67 408.33 581.67 414.83 Q 581.67 421.33 586.67 421.33 Q 591.67 421.33 592.50 434.50 Q 593.33 447.67 599.33 448.00 Q 605.33 448.33 599.67 448.83 Q 594.00 449.33 600.17 449.83 Q 606.33 450.33 600.17 450.67 Q 594.00 451.00 593.67 458.67 Q 593.33 466.33 592.83 457.67 Q 592.33 449.00 592.00 456.17 Q 591.67 463.33 585.83 463.83 Q 580.00 464.33 579.83 471.83 Q 579.67 479.33 572.83 479.83 Q 566.00 480.33 565.33 485.17 Q 564.67 490.00 542.33 490.00 Q 520.00 490.00 519.83 485.17 Q 519.67 480.33 513.33 479.83 Q 507.00 479.33 506.67 471.67 Q 506.33 464.00 499.00 463.33 Q 491.67 462.67 491.67 442.33 Q 491.67 422.00 499.17 421.17 Q 506.67 420.33 507.33 414.00 Q 508.00 407.67 514.83 407.50 Q 521.67 407.33 522.33 401.00 Q 523.00 394.67 536.83 394.50 Q 550.67 394.33 535.83 394.33 Q 521.00 394.33 519.83 400.67 Q 518.67 407.00 513.00 407.00 Q 507.33 407.00 504.33 404.00 Q 501.33 401.00 503.33 410.33 Q 505.33 419.67 498.00 420.17 Q 490.67 420.67 490.33 442.00 Q 490.00 463.33 484.33 462.83 Q 478.67 462.33 478.67 442.67 Q 478.67 423.00 483.17 421.67 Q 487.67 420.33 488.00 414.67 Q 488.33 409.00 493.50 408.67 Q 498.67 408.33 499.00 402.67 Q 499.33 397.00 505.50 396.67 Q 511.67 396.33 512.00 390.17 Q 512.33 384.00 531.50 383.67 Q 550.67 383.33 531.00 382.67 Z"/>
<path fill="#FCD133" d="M 461.00 194.00 Q 460.67 194.67 460.67 202.33 Q 460.67 210.00 460.83 210.33 Q 461.00 210.67 461.33 210.83 Q 461.67 211.00 468.33 211.00 Q 475.00 211.00 475.33 210.83 Q 475.67 210.67 475.50 202.33 Q 475.33 194.00 468.17 194.00 Z"/>
<path fill="#FCD133" d="M 157.00 193.33 Q 157.33 217.67 165.83 217.83 Q 174.33 218.00 174.83 223.33 Q 175.33 228.67 192.00 228.67 Q 208.67 228.67 209.50 232.67 Q 210.33 236.67 325.50 236.50 Q 440.67 236.33 441.33 232.50 Q 442.00 228.67 459.33 228.50 Q 476.67 228.33 477.00 223.17 Q 477.33 218.00 484.50 217.67 Q 491.67 217.33 491.50 204.67 Q 491.33 192.00 485.17 192.67 Q 479.00 193.33 484.83 193.83 Q 490.67 194.33 490.50 205.50 Q 490.33 216.67 484.33 216.50 Q 478.33 216.33 484.00 216.00 Q 489.67 215.67 489.50 206.33 Q 489.33 197.00 484.83 199.50 Q 480.33 202.00 479.17 208.17 Q 478.00 214.33 468.67 213.83 Q 459.33 213.33 468.50 212.83 Q 477.67 212.33 468.83 211.83 Q 460.00 211.33 459.67 201.17 Q 459.33 191.00 448.17 191.17 Q 437.00 191.33 436.67 201.50 Q 436.33 211.67 421.50 211.83 Q 406.67 212.00 404.50 202.17 Q 402.33 192.33 404.67 201.50 Q 407.00 210.67 421.00 210.83 Q 435.00 211.00 435.33 201.50 Q 435.67 192.00 336.83 191.67 Q 238.00 191.33 319.17 191.83 Q 400.33 192.33 321.00 192.50 Q 241.67 192.67 241.50 202.67 Q 241.33 212.67 254.67 212.83 Q 268.00 213.00 267.67 223.17 Q 267.33 233.33 266.83 225.17 Q 266.33 217.00 258.67 219.67 Q 251.00 222.33 252.67 228.00 Q 254.33 233.67 243.17 234.00 Q 232.00 234.33 250.17 234.83 Q 268.33 235.33 240.17 235.67 Q 212.00 236.00 211.17 232.00 Q 210.33 228.00 194.17 228.00 Q 178.00 228.00 176.83 222.50 Q 175.67 217.00 167.50 216.83 Q 159.33 216.67 159.00 205.33 Q 158.67 194.00 166.17 193.67 Q 173.67 193.33 165.33 193.33 Z"/>
<path fill="#FCD133" d="M 191.67 191.33 Q 190.33 191.00 189.67 191.50 Q 189.00 192.00 186.00 192.17 Q 183.00 192.33 183.33 192.67 Q 183.67 193.00 186.00 193.17 Q 188.33 193.33 185.50 193.50 Q 182.67 193.67 182.50 193.83 Q 182.33 194.00 179.67 193.83 Q 177.00 193.67 176.00 193.83 Q 175.00 194.00 175.00 202.17 Q 175.00 210.33 175.33 210.67 Q 175.67 211.00 182.33 211.00 Q 189.00 211.00 189.33 210.67 Q 189.67 210.33 189.67 201.50 Q 189.67 192.67 190.17 192.17 Q 190.67 191.67 191.17 191.50 Z"/>
<path fill="#F5A623" d="M 461.00 573.33 Q 461.00 588.33 461.33 588.67 Q 461.67 589.00 468.67 589.00 Q 475.67 589.00 476.67 588.67 Q 477.67 588.33 476.67 588.00 Q 475.67 587.67 473.00 587.50 Q 470.33 587.33 472.67 587.17 Q 475.00 587.00 475.50 586.67 Q 476.00 586.33 476.67 586.50 Q 477.33 586.67 477.33 579.83 Q 477.33 573.00 469.17 573.17 Z"/>
<path fill="#F5A623" d="M 487.00 525.33 Q 488.00 527.00 488.00 527.83 Q 488.00 528.67 487.50 529.50 Q 487.00 530.33 487.33 530.83 Q 487.67 531.33 487.67 531.83 Q 487.67 532.33 487.33 532.83 Q 487.00 533.33 494.83 533.33 Q 502.67 533.33 499.33 533.17 Q 496.00 533.00 495.33 532.50 Q 494.67 532.00 493.83 532.00 Q 493.00 532.00 492.67 532.33 Q 492.33 532.67 490.67 532.33 Q 489.00 532.00 488.83 531.67 Q 488.67 531.33 488.83 530.67 Q 489.00 530.00 488.83 528.50 Q 488.67 527.00 489.00 526.50 Q 489.33 526.00 489.67 525.83 Q 490.00 525.67 490.83 525.67 Q 491.67 525.67 492.67 526.00 Q 493.67 526.33 493.83 527.33 Q 494.00 528.33 495.33 528.33 Q 496.67 528.33 496.50 527.33 Q 496.33 526.33 497.00 525.83 Q 497.67 525.33 492.33 525.33 Z"/>
<path fill="#F5A623" d="M 519.00 491.33 Q 565.67 491.33 565.33 491.00 Q 565.00 490.67 542.33 490.67 Q 519.67 490.67 519.33 491.00 Z"/>
<path fill="#F5A623" d="M 519.00 489.33 Q 519.67 490.00 542.33 490.00 Q 565.00 490.00 565.33 489.67 Q 565.67 489.33 542.33 489.33 Z"/>
<path fill="#F5A623" d="M 550.33 384.00 Q 512.67 383.67 512.00 390.17 Q 511.33 396.67 505.17 396.83 Q 499.00 397.00 498.83 402.67 Q 498.67 408.33 493.33 408.83 Q 488.00 409.33 487.83 414.67 Q 487.67 420.00 486.33 420.17 Q 485.00 420.33 485.67 420.83 Q 486.33 421.33 482.83 421.67 Q 479.33 422.00 479.33 442.83 Q 479.33 463.67 482.50 463.67 Q 485.67 463.67 486.33 463.17 Q 487.00 462.67 488.67 463.17 Q 490.33 463.67 490.67 442.00 Q 491.00 420.33 493.67 420.00 Q 496.33 419.67 496.83 419.00 Q 497.33 418.33 497.83 419.00 Q 498.33 419.67 502.00 419.50 Q 505.67 419.33 505.67 413.50 Q 505.67 407.67 506.17 407.17 Q 506.67 406.67 513.67 406.50 Q 520.67 406.33 520.67 400.67 Q 520.67 395.00 521.33 394.33 Q 522.00 393.67 536.33 393.50 Q 550.67 393.33 550.50 388.67 Z"/>
<path fill="#F5A623" d="M 512.00 382.33 Q 512.67 383.00 530.83 383.00 Q 549.00 383.00 549.33 382.67 Q 549.67 382.33 530.83 382.33 Z"/>
<path fill="#F5A623" d="M 458.33 192.00 Q 458.00 212.33 458.67 213.00 Q 459.33 213.67 468.00 213.67 Q 476.67 213.67 477.50 214.17 Q 478.33 214.67 479.17 208.67 Q 480.00 202.67 482.67 202.67 Q 485.33 202.67 486.50 201.50 Q 487.67 200.33 487.33 199.00 Q 487.00 197.67 488.33 197.67 Q 489.67 197.67 489.83 204.17 Q 490.00 210.67 489.50 211.33 Q 489.00 212.00 489.17 213.83 Q 489.33 215.67 483.67 216.00 Q 478.00 216.33 478.33 216.67 Q 478.67 217.00 484.67 216.83 Q 490.67 216.67 490.67 205.50 Q 490.67 194.33 490.33 194.00 Q 490.00 193.67 484.67 193.50 Q 479.33 193.33 484.67 193.17 Q 490.00 193.00 490.33 192.67 Q 490.67 192.33 484.33 192.33 Q 478.00 192.33 478.00 202.00 Q 478.00 211.67 477.67 212.17 Q 477.33 212.67 468.50 212.83 Q 459.67 213.00 459.17 212.50 Q 458.67 212.00 458.50 202.00 Z"/>
<path fill="#F5A623" d="M 453.67 192.33 Q 438.00 192.33 438.00 202.17 Q 438.00 212.00 437.50 212.50 Q 437.00 213.00 421.00 213.17 Q 405.00 213.33 421.17 213.50 Q 437.33 213.67 438.00 213.00 Q 438.67 212.33 438.83 202.83 Q 439.00 193.33 439.50 193.00 Q 440.00 192.67 446.83 192.50 Z"/>
<path fill="#F5A623" d="M 159.00 216.67 Q 175.33 217.00 176.33 222.33 Q 177.33 227.67 193.50 227.67 Q 209.67 227.67 210.50 231.67 Q 211.33 235.67 240.00 235.50 Q 268.67 235.33 250.50 234.83 Q 232.33 234.33 243.50 234.00 Q 254.67 233.67 254.50 229.33 Q 254.33 225.00 252.17 224.67 Q 250.00 224.33 252.50 221.00 Q 255.00 217.67 260.83 217.67 Q 266.67 217.67 267.00 225.67 Q 267.33 233.67 268.00 223.50 Q 268.67 213.33 255.00 213.00 Q 241.33 212.67 241.33 202.83 Q 241.33 193.00 321.00 192.67 Q 400.67 192.33 296.50 191.67 Q 192.33 191.00 190.50 202.00 Q 188.67 213.00 181.83 212.67 Q 175.00 212.33 174.67 202.67 Q 174.33 193.00 166.17 193.67 Q 158.00 194.33 158.50 205.50 Z"/>
<path fill="#01061A" d="M 522.00 396.33 Q 524.33 397.33 523.67 397.67 Q 523.00 398.00 523.67 402.17 Q 524.33 406.33 522.83 407.83 Q 521.33 409.33 520.83 408.67 Q 520.33 408.00 514.33 409.00 Q 508.33 410.00 508.00 416.00 Q 507.67 422.00 500.33 422.17 Q 493.00 422.33 493.67 422.83 Q 494.33 423.33 493.67 423.83 Q 493.00 424.33 493.67 442.83 Q 494.33 461.33 493.67 461.83 Q 493.00 462.33 500.17 462.67 Q 507.33 463.00 507.83 470.33 Q 508.33 477.67 513.33 477.50 Q 518.33 477.33 514.17 477.83 Q 510.00 478.33 514.67 478.67 Q 519.33 479.00 519.83 483.83 Q 520.33 488.67 522.50 488.50 Q 524.67 488.33 522.83 487.83 Q 521.00 487.33 521.17 484.83 Q 521.33 482.33 522.00 484.67 Q 522.67 487.00 541.50 487.17 Q 560.33 487.33 543.17 487.83 Q 526.00 488.33 545.83 488.33 Q 565.67 488.33 566.00 483.67 Q 566.33 479.00 573.00 478.67 Q 579.67 478.33 579.00 472.00 Q 578.33 465.67 579.17 464.50 Q 580.00 463.33 585.33 462.83 Q 590.67 462.33 589.67 459.50 Q 588.67 456.67 589.17 439.50 Q 589.67 422.33 585.33 422.17 Q 581.00 422.00 580.67 416.00 Q 580.33 410.00 577.00 409.00 Q 573.67 408.00 570.50 408.67 Q 567.33 409.33 566.33 408.33 Q 565.33 407.33 566.00 406.83 Q 566.67 406.33 566.17 402.00 Q 565.67 397.67 543.83 397.00 Z"/>
<path fill="#01061A" d="M 377.00 312.33 Q 377.33 396.67 400.50 396.50 Q 423.67 396.33 423.50 354.17 Q 423.33 312.00 400.17 312.17 Z"/>
<path fill="#01061A" d="M 211.00 312.33 Q 211.33 396.67 235.00 396.50 Q 258.67 396.33 258.50 354.17 Q 258.33 312.00 234.67 312.17 Z"/>
</g></svg>