<svg xmlns="http://www.w3.org/2000/svg" width="512" height="512" viewBox="0 0 512 512" shape-rendering="crispEdges" role="img" aria-labelledby="title">
  <title id="title">Ethos pixel logo</title>
  <rect width="512" height="512" fill="#000000"/>
  <g transform="translate(0 96)">
    <rect x="192" y="0" width="128" height="32" fill="#FFD400"/>
    <rect x="128" y="32" width="256" height="32" fill="#FFD400"/>
    <rect x="96" y="64" width="320" height="32" fill="#FFD400"/>
    <rect x="64" y="96" width="128" height="32" fill="#FFD400"/>
    <rect x="320" y="96" width="128" height="32" fill="#FFD400"/>
    <rect x="32" y="128" width="128" height="32" fill="#FFD400"/>
    <rect x="352" y="128" width="128" height="32" fill="#FFD400"/>
    <rect x="32" y="160" width="96" height="32" fill="#FFD400"/>
    <rect x="384" y="160" width="96" height="32" fill="#FFD400"/>
    <rect x="0" y="192" width="512" height="32" fill="#FFD400"/>
    <rect x="0" y="224" width="96" height="32" fill="#FFD400"/>
    <rect x="160" y="224" width="96" height="32" fill="#FFD400"/>
    <rect x="288" y="224" width="96" height="32" fill="#FFD400"/>
    <rect x="448" y="224" width="64" height="32" fill="#FFD400"/>
    <rect x="96" y="224" width="64" height="32" fill="#FFB000"/>
    <rect x="256" y="224" width="32" height="32" fill="#FFB000"/>
    <rect x="384" y="224" width="64" height="32" fill="#FFB000"/>
    <rect x="96" y="256" width="64" height="32" fill="#FFB000"/>
    <rect x="160" y="256" width="96" height="32" fill="#FFD400"/>
    <rect x="288" y="256" width="32" height="32" fill="#FFB000"/>
    <rect x="320" y="256" width="96" height="32" fill="#FFD400"/>
    <rect x="416" y="256" width="64" height="32" fill="#FFB000"/>
    <rect x="96" y="288" width="64" height="32" fill="#FFB000"/>
    <rect x="288" y="288" width="32" height="32" fill="#FFB000"/>
    <rect x="320" y="288" width="64" height="32" fill="#FFD400"/>
    <rect x="384" y="288" width="64" height="32" fill="#FFB000"/>
  </g>
</svg>
